REM DIRINDEX 1\6,1\2\7,1\2\8,1\2\9,1\3\10,1\3\11,1\4\12,1\4\13,1\4\14,1\5\15,1\5\16,1\5\17
REM DIRNAME cjc040,folder01,folder02,folder03,folder04,folder05,folder06,folder07,folder08,folder09,folder10,folder11,folder12,folder13,folder14,folder15,folder16
TITLE ""
FILE "P2Q_j_1254-1267.mp3" MP3
  TRACK 01 AUDIO
    TITLE "12:cjc040_0506"
    INDEX 01 00:00:00
  TRACK 02 AUDIO
    TITLE "0:"
    INDEX 01 00:02:26
  TRACK 03 AUDIO
    TITLE "13:cjc040_0507"
    INDEX 01 00:03:12
  TRACK 04 AUDIO
    TITLE "0:"
    INDEX 01 00:05:54
  TRACK 05 AUDIO
    TITLE "14:cjc040_0508"
    INDEX 01 00:06:30
  TRACK 06 AUDIO
    TITLE "0:"
    INDEX 01 00:10:02
  TRACK 07 AUDIO
    TITLE "12:cjc040_0509"
    INDEX 01 00:10:63
  TRACK 08 AUDIO
    TITLE "0:"
    INDEX 01 00:12:60
  TRACK 09 AUDIO
    TITLE "13:cjc040_0510"
    INDEX 01 00:13:45
  TRACK 10 AUDIO
    TITLE "0:"
    INDEX 01 00:15:21
  TRACK 11 AUDIO
    TITLE "14:cjc040_0511"
    INDEX 01 00:16:00
  TRACK 12 AUDIO
    TITLE "0:"
    INDEX 01 00:23:03
  TRACK 13 AUDIO
    TITLE "12:cjc040_0512"
    INDEX 01 00:23:57
  TRACK 14 AUDIO
    TITLE "0:"
    INDEX 01 00:25:29
  TRACK 15 AUDIO
    TITLE "13:cjc040_0513"
    INDEX 01 00:26:13
  TRACK 16 AUDIO
    TITLE "0:"
    INDEX 01 00:29:60
  TRACK 17 AUDIO
    TITLE "14:cjc040_0514"
    INDEX 01 00:30:36
  TRACK 18 AUDIO
    TITLE "0:"
    INDEX 01 00:35:00
  TRACK 19 AUDIO
    TITLE "12:cjc040_0515"
    INDEX 01 00:35:61
  TRACK 20 AUDIO
    TITLE "0:"
    INDEX 01 00:37:69
  TRACK 21 AUDIO
    TITLE "13:cjc040_0516"
    INDEX 01 00:38:47
  TRACK 22 AUDIO
    TITLE "0:"
    INDEX 01 00:40:66
  TRACK 23 AUDIO
    TITLE "14:cjc040_0517"
    INDEX 01 00:41:36
  TRACK 24 AUDIO
    TITLE "0:"
    INDEX 01 00:46:06
  TRACK 25 AUDIO
    TITLE "12:cjc040_0518"
    INDEX 01 00:46:60
  TRACK 26 AUDIO
    TITLE "0:"
    INDEX 01 00:48:24
  TRACK 27 AUDIO
    TITLE "13:cjc040_0519"
    INDEX 01 00:49:02
  TRACK 28 AUDIO
    TITLE "0:"
    INDEX 01 00:50:74
  TRACK 29 AUDIO
    TITLE "14:cjc040_0520"
    INDEX 01 00:51:48
  TRACK 30 AUDIO
    TITLE "0:"
    INDEX 01 00:56:18
  TRACK 31 AUDIO
    TITLE "12:cjc040_0521"
    INDEX 01 00:56:71
  TRACK 32 AUDIO
    TITLE "0:"
    INDEX 01 00:58:42
  TRACK 33 AUDIO
    TITLE "13:cjc040_0522"
    INDEX 01 00:59:24
  TRACK 34 AUDIO
    TITLE "0:"
    INDEX 01 01:00:39
  TRACK 35 AUDIO
    TITLE "14:cjc040_0523"
    INDEX 01 01:01:15
  TRACK 36 AUDIO
    TITLE "0:"
    INDEX 01 01:07:39
  TRACK 37 AUDIO
    TITLE "12:cjc040_0524"
    INDEX 01 01:08:15
  TRACK 38 AUDIO
    TITLE "0:"
    INDEX 01 01:09:63
  TRACK 39 AUDIO
    TITLE "13:cjc040_0525"
    INDEX 01 01:10:45
  TRACK 40 AUDIO
    TITLE "0:"
    INDEX 01 01:12:15
  TRACK 41 AUDIO
    TITLE "14:cjc040_0526"
    INDEX 01 01:12:68
  TRACK 42 AUDIO
    TITLE "0:"
    INDEX 01 01:17:06
  TRACK 43 AUDIO
    TITLE "12:cjc040_0527"
    INDEX 01 01:17:61
  TRACK 44 AUDIO
    TITLE "0:"
    INDEX 01 01:19:38
  TRACK 45 AUDIO
    TITLE "13:cjc040_0528"
    INDEX 01 01:20:20
  TRACK 46 AUDIO
    TITLE "0:"
    INDEX 01 01:22:21
  TRACK 47 AUDIO
    TITLE "14:cjc040_0529"
    INDEX 01 01:22:72
  TRACK 48 AUDIO
    TITLE "0:"
    INDEX 01 01:29:48
  TRACK 49 AUDIO
    TITLE "12:cjc040_0530"
    INDEX 01 01:30:26
  TRACK 50 AUDIO
    TITLE "0:"
    INDEX 01 01:31:63
  TRACK 51 AUDIO
    TITLE "13:cjc040_0531"
    INDEX 01 01:32:39
  TRACK 52 AUDIO
    TITLE "0:"
    INDEX 01 01:34:10
  TRACK 53 AUDIO
    TITLE "14:cjc040_0532"
    INDEX 01 01:34:59
  TRACK 54 AUDIO
    TITLE "0:"
    INDEX 01 01:43:15
  TRACK 55 AUDIO
    TITLE "12:cjc040_0533"
    INDEX 01 01:43:68
  TRACK 56 AUDIO
    TITLE "0:"
    INDEX 01 01:46:23
  TRACK 57 AUDIO
    TITLE "13:cjc040_0534"
    INDEX 01 01:47:05
  TRACK 58 AUDIO
    TITLE "0:"
    INDEX 01 01:49:24
  TRACK 59 AUDIO
    TITLE "14:cjc040_0535"
    INDEX 01 01:50:04
  TRACK 60 AUDIO
    TITLE "0:"
    INDEX 01 01:55:30
  TRACK 61 AUDIO
    TITLE "12:cjc040_0536"
    INDEX 01 01:56:08
  TRACK 62 AUDIO
    TITLE "0:"
    INDEX 01 01:57:51
  TRACK 63 AUDIO
    TITLE "13:cjc040_0537"
    INDEX 01 01:58:34
  TRACK 64 AUDIO
    TITLE "0:"
    INDEX 01 02:00:00
  TRACK 65 AUDIO
    TITLE "14:cjc040_0538"
    INDEX 01 02:00:55
  TRACK 66 AUDIO
    TITLE "0:"
    INDEX 01 02:05:38
  TRACK 67 AUDIO
    TITLE "12:cjc040_0539"
    INDEX 01 02:06:18
  TRACK 68 AUDIO
    TITLE "0:"
    INDEX 01 02:07:43
  TRACK 69 AUDIO
    TITLE "13:cjc040_0540"
    INDEX 01 02:08:23
  TRACK 70 AUDIO
    TITLE "0:"
    INDEX 01 02:09:28
  TRACK 71 AUDIO
    TITLE "14:cjc040_0541"
    INDEX 01 02:10:08
  TRACK 72 AUDIO
    TITLE "0:"
    INDEX 01 02:15:19
  TRACK 73 AUDIO
    TITLE "12:cjc040_0542"
    INDEX 01 02:16:01
  TRACK 74 AUDIO
    TITLE "0:"
    INDEX 01 02:17:36
  TRACK 75 AUDIO
    TITLE "13:cjc040_0543"
    INDEX 01 02:18:16
  TRACK 76 AUDIO
    TITLE "0:"
    INDEX 01 02:20:03
  TRACK 77 AUDIO
    TITLE "14:cjc040_0544"
    INDEX 01 02:20:54
  TRACK 78 AUDIO
    TITLE "0:"
    INDEX 01 02:25:70
  TRACK 79 AUDIO
    TITLE "12:cjc040_0545"
    INDEX 01 02:26:54
  TRACK 80 AUDIO
    TITLE "0:"
    INDEX 01 02:28:24
  TRACK 81 AUDIO
    TITLE "13:cjc040_0546"
    INDEX 01 02:29:04
  TRACK 82 AUDIO
    TITLE "0:"
    INDEX 01 02:30:60
  TRACK 83 AUDIO
    TITLE "14:cjc040_0547"
    INDEX 01 02:31:44
  TRACK 84 AUDIO
    TITLE "0:"
    INDEX 01 02:36:06
